<svg width="32" height="32" viewBox="0 0 32 32" fill="none" xmlns="http://www.w3.org/2000/svg">
<path d="M16 7.875C20.5 7.875 24.125 11.5 24.125 16C24.125 20.5 20.5 24.125 16 24.125C11.5 24.125 7.875 20.5 7.875 16C7.875 11.5 11.5 7.875 16 7.875ZM16 6C10.5 6 6 10.5 6 16C6 21.5 10.5 26 16 26C21.5 26 26 21.5 26 16C26 10.5 21.5 6 16 6Z" fill="#272727"/>
<path d="M18.2466 20L16.4247 16.3478H14.589V20H13V11H16.2192C17.3151 11 18.169 11.2261 18.7808 11.6783C19.3927 12.1217 19.6986 12.7913 19.6986 13.687C19.6986 14.313 19.5479 14.8261 19.2466 15.2261C18.9543 15.6174 18.5342 15.9087 17.9863 16.1L20 20H18.2466ZM16.1096 15.0435C16.7854 15.0435 17.2877 14.9478 17.6164 14.7565C17.9452 14.5565 18.1096 14.2 18.1096 13.687C18.1096 13.1739 17.9452 12.8174 17.6164 12.6174C17.2877 12.4174 16.7854 12.3174 16.1096 12.3174H14.589V15.0435H16.1096Z" fill="#272727"/>
</svg>
