<svg width="8" height="6" viewBox="0 0 8 6" fill="none" xmlns="http://www.w3.org/2000/svg">
<path d="M3.02567 5.37997C2.96821 5.38026 2.91122 5.369 2.85814 5.34701C2.80505 5.32496 2.7569 5.29253 2.7165 5.25164L0.896503 3.43747C0.814574 3.35545 0.768555 3.24427 0.768555 3.1283C0.768555 3.01239 0.814574 2.90115 0.896503 2.81914C0.936724 2.77784 0.984796 2.74505 1.0379 2.72265C1.091 2.70025 1.14804 2.6887 1.20567 2.6887C1.2633 2.6887 1.32035 2.70025 1.37345 2.72265C1.42654 2.74505 1.47462 2.77784 1.51484 2.81914L3.02567 4.32414L6.57817 0.771636C6.66194 0.690734 6.77382 0.645508 6.89025 0.645508C7.00669 0.645508 7.11857 0.690734 7.20234 0.771636C7.28429 0.853671 7.33026 0.964865 7.33026 1.0808C7.33026 1.19674 7.28429 1.30794 7.20234 1.38997L3.33484 5.25164C3.29447 5.29253 3.24629 5.32496 3.1932 5.34701C3.14012 5.369 3.08313 5.38026 3.02567 5.37997Z" fill="white" fill-opacity="0.61"/>
</svg>
