<svg width="28" height="16" viewBox="0 0 28 16" fill="none" xmlns="http://www.w3.org/2000/svg">
<path d="M24.9599 11.3623C24.9599 11.3623 27.1364 13.5119 27.6748 14.5066C27.6853 14.5209 27.6935 14.5368 27.6991 14.5537C27.9185 14.9211 27.9723 15.2092 27.8646 15.4219C27.6829 15.7732 27.0678 15.9495 26.8591 15.9643H23.0122C22.7444 15.9643 22.1871 15.8943 21.5087 15.4259C20.9905 15.0638 20.475 14.4675 19.9756 13.8847C19.2299 13.0192 18.5852 12.2682 17.9324 12.2682C17.8499 12.268 17.768 12.2816 17.6901 12.3085C17.1961 12.4647 16.5689 13.1686 16.5689 15.0436C16.5689 15.6305 16.1058 15.9643 15.7814 15.9643H14.0195C13.4192 15.9643 10.2937 15.7543 7.5223 12.8321C4.12631 9.25442 1.07624 2.07747 1.04662 2.01421C0.856837 1.54984 1.25526 1.29678 1.68598 1.29678H5.57058C6.09149 1.29678 6.26109 1.61175 6.37954 1.89442C6.51683 2.2188 7.02562 3.51636 7.86015 4.9741C9.21155 7.34577 10.042 8.31087 10.7056 8.31087C10.8303 8.31123 10.9529 8.27874 11.061 8.21665C11.9278 7.74016 11.7663 4.64432 11.7259 4.00631C11.7259 3.88248 11.7246 2.62396 11.2804 2.01556C10.9627 1.57945 10.4216 1.40985 10.0945 1.34793C10.182 1.22141 10.3678 1.02758 10.606 0.91317C11.1996 0.617047 12.2724 0.573975 13.3371 0.573975H13.928C15.0829 0.590127 15.3817 0.664157 15.8016 0.770493C16.6469 0.972395 16.6631 1.52022 16.5891 3.3858C16.5675 3.91882 16.5446 4.51914 16.5446 5.2258C16.5446 5.37655 16.5379 5.54481 16.5379 5.71575C16.5123 6.67277 16.4787 7.75093 17.1544 8.19376C17.242 8.24836 17.3432 8.27727 17.4465 8.27722C17.6807 8.27722 18.382 8.27722 20.2839 5.01313C21.1184 3.57155 21.7645 1.87153 21.8089 1.74366C21.8466 1.67232 21.9597 1.47177 22.097 1.39101C22.1946 1.33904 22.304 1.31309 22.4146 1.31563H26.9843C27.4824 1.31563 27.8202 1.39101 27.8862 1.57945C27.9965 1.88499 27.8646 2.81778 25.7783 5.63903C25.427 6.10879 25.1188 6.51528 24.8482 6.87063C22.9571 9.35268 22.9571 9.47786 24.9599 11.3623Z" fill="#272727"/>
</svg>
