<svg width="27" height="19" viewBox="0 0 27 19" fill="none" xmlns="http://www.w3.org/2000/svg">
<path d="M13.926 0.076416H14.0715C15.415 0.0813194 22.2225 0.130353 24.058 0.623956C24.6128 0.7746 25.1185 1.06824 25.5243 1.47552C25.9302 1.8828 26.222 2.38946 26.3707 2.94487C26.5358 3.56596 26.6518 4.38809 26.7303 5.23636L26.7466 5.40635L26.7826 5.8313L26.7957 6.00129C26.9019 7.49517 26.915 8.89426 26.9166 9.1999V9.32248C26.915 9.63956 26.9003 11.1334 26.7826 12.6894L26.7695 12.8611L26.7548 13.031C26.6731 13.9659 26.5521 14.8943 26.3707 15.5775C26.2225 16.1331 25.9308 16.64 25.5248 17.0474C25.1189 17.4547 24.6131 17.7482 24.058 17.8984C22.162 18.4084 14.9557 18.4443 13.9571 18.446H13.725C13.2199 18.446 11.1311 18.4362 8.94096 18.361L8.6631 18.3512L8.5209 18.3446L8.24141 18.3332L7.96192 18.3217C6.14769 18.2417 4.42008 18.1125 3.6241 17.8968C3.06919 17.7467 2.56345 17.4535 2.15755 17.0465C1.75165 16.6394 1.45984 16.1328 1.31136 15.5775C1.12994 14.8959 1.00899 13.9659 0.927266 13.031L0.91419 12.8594L0.901114 12.6894C0.820451 11.5819 0.775752 10.4721 0.76709 9.36171L0.76709 9.16067C0.770359 8.80927 0.783434 7.59487 0.871694 6.25462L0.883136 6.08628L0.888039 6.00129L0.901114 5.8313L0.937072 5.40635L0.953417 5.23636C1.03187 4.38809 1.14792 3.56433 1.313 2.94487C1.46123 2.38924 1.75293 1.88233 2.15884 1.47498C2.56476 1.06763 3.07063 0.774149 3.62574 0.623956C4.42171 0.411478 6.14932 0.280722 7.96356 0.198999L8.24141 0.187558L8.52254 0.177752L8.6631 0.172849L8.94259 0.161408C10.4981 0.111352 12.0543 0.0835632 13.6106 0.0780505H13.926V0.076416ZM11.2275 5.32299V13.1978L18.0219 9.26201L11.2275 5.32299Z" fill="#272727"/>
</svg>
