<svg width="60" height="28" viewBox="0 0 60 28" fill="none" xmlns="http://www.w3.org/2000/svg">
<path d="M10.8493 2.33479C9.16892 2.26587 7.9492 2.88495 7.06028 3.99633C6.08114 3.6111 5.02743 4.17602 4.48252 4.89233C4.86865 5.48679 5.06231 6.11695 5.02382 6.79141L3.91597 7.95202L3.7608 9.19141C2.82376 10.352 2.40035 11.5631 2.26563 12.8037C2.26443 13.2529 2.47012 13.5348 2.82015 13.6997C1.68585 19.0326 6.73069 18.8948 7.08554 21.5053C7.66051 24.2671 8.88263 25.7428 10.8481 25.7379" stroke="white" stroke-width="3" stroke-miterlimit="10"/>
<path d="M10.8494 3.09294V5.30833C9.84979 5.31202 9.2712 4.79879 8.9356 3.98279C8.78765 4.01848 8.60241 4.03202 8.39551 4.00617C8.33898 3.99879 8.31372 3.92617 8.35462 3.88556C9.11844 3.13356 9.93639 3.0154 10.8494 3.09294Z" fill="white" stroke="white" stroke-miterlimit="10"/>
<path d="M10.8495 6.67329V6.2376C9.79577 6.05298 8.98744 5.44252 8.33428 4.56252H7.55L7.35634 4.91821C7.03518 4.96006 6.70679 4.76068 6.3772 4.47021L5.48828 5.09052C5.7457 5.91514 5.90087 6.77668 5.95259 7.67514L5.96582 5.30837C6.2076 5.09791 6.56365 5.08806 6.95819 5.14345C8.2585 5.45975 9.27733 6.52806 10.8495 6.67329Z" fill="white" stroke="white" stroke-miterlimit="10"/>
<path d="M5.43751 7.63696C4.93351 8.03573 4.72661 8.83573 4.73984 9.9348C4.73984 9.98157 4.723 10.0271 4.69173 10.0603C4.1348 10.6511 3.69334 11.3551 3.33729 12.144C3.04259 12.8271 4.56663 12.6191 5.83686 12.816C5.92227 12.3446 6.09187 11.9422 6.31681 11.5853C6.34929 11.5336 6.32282 11.4671 6.26509 11.4523C6.1472 11.424 6.03654 11.365 5.93309 11.2837C5.86212 11.2283 5.76108 11.2443 5.71658 11.3231L5.60351 11.5225C5.58426 11.5557 5.54938 11.5754 5.51209 11.5742L5.08988 11.5557C5.0153 11.552 4.94674 11.5065 4.91667 11.4376C4.84329 11.2677 4.8481 11.0708 4.91065 10.8554C4.92509 10.805 4.95395 10.7619 4.98884 10.7237C5.45796 10.208 5.63598 9.36988 5.77913 8.49111C5.79115 8.4148 5.78634 8.33603 5.76349 8.26096L5.59148 7.68496C5.57103 7.6185 5.49164 7.59388 5.43751 7.63696Z" fill="white" stroke="white" stroke-miterlimit="10"/>
<path d="M10.8229 24.9748C8.21991 24.6314 8.70948 21.0856 6.9184 19.1729C5.16582 17.2874 3.37835 16.9932 3.88957 13.7145C6.29531 13.9483 5.46052 16.8739 7.80732 18.5108C7.87348 18.5576 7.93122 18.6179 7.96971 18.6892C9.33497 21.2136 9.18341 23.8228 10.8217 23.9459L10.8229 24.9748Z" fill="white" stroke="white" stroke-miterlimit="10"/>
<path d="M9.05702 8.41598C9.08469 8.41105 9.09672 8.44798 9.07146 8.46028C8.4628 8.76552 7.80243 8.84675 7.04943 8.53167C6.65248 8.43198 6.49731 7.52244 6.48047 6.1489C6.48047 6.11936 6.51415 6.10213 6.5358 6.12182L6.83411 6.38028C6.85937 6.40244 6.87261 6.43813 6.86779 6.47136C6.66331 7.98767 7.33812 8.73352 9.05702 8.41598Z" fill="white" stroke="white" stroke-miterlimit="10"/>
<path d="M7.54886 7.07696C7.87844 7.45481 8.24532 7.76373 8.66873 7.9705C8.70121 7.9865 8.68677 8.03696 8.65069 8.03204L7.82311 7.92865C7.75575 7.92004 7.69922 7.87081 7.68117 7.80435L7.49112 7.10896C7.4815 7.07327 7.5248 7.04988 7.54886 7.07696Z" stroke="white" stroke-miterlimit="10"/>
<path d="M6.52361 9.22709L6.2265 10.2819C6.20846 10.3446 6.27943 10.3939 6.32995 10.3545L7.46666 9.47693C7.54365 9.41786 7.51478 9.29355 7.42095 9.27509L6.67999 9.12986C6.61022 9.11632 6.54286 9.15816 6.52361 9.22709Z" fill="white" stroke="white" stroke-miterlimit="10"/>
<path d="M10.2695 7.42274L10.3044 7.44613C10.3994 7.51013 10.4572 7.61843 10.4572 7.73536V7.7772C10.4572 7.81536 10.4873 7.84736 10.5257 7.84736H10.6063C10.6593 7.84736 10.7026 7.80305 10.7026 7.7489V7.62582C10.7026 7.57782 10.6785 7.53228 10.6388 7.50643L10.3682 7.33167L10.2695 7.42274Z" fill="white" stroke="white" stroke-miterlimit="10"/>
<path d="M9.98202 8.50708C9.37457 8.77908 8.94274 9.19262 8.68652 9.74646" stroke="white" stroke-width="2" stroke-miterlimit="10"/>
<path d="M10.8494 10.5293V8.917C10.444 8.63023 9.90152 9.16684 9.82453 9.49054L10.2696 9.54961C10.2347 9.66653 10.1469 9.75515 10.035 9.797C9.70304 9.92254 9.37345 10.2056 9.33496 10.6142C9.33376 10.9982 10.1313 10.4998 10.8494 10.5293Z" fill="white" stroke="white" stroke-miterlimit="10"/>
<path d="M7.8239 10.1637C6.53081 12.5884 5.67316 14.5108 6.7389 14.8751C7.70601 14.9785 9.04601 13.8204 10.8491 13.5299V12.8173C9.62219 13.2677 8.4951 13.557 7.62783 13.424C7.10458 13.2788 7.45942 11.4351 7.84675 10.1724C7.85036 10.1576 7.83111 10.1502 7.8239 10.1637Z" fill="white" stroke="white" stroke-miterlimit="10"/>
<path d="M9.08821 12.4677C8.35325 12.6548 8.07298 12.2819 8.13673 11.4831C8.14034 11.4351 8.079 11.4142 8.05374 11.4548C7.80955 11.8449 7.75061 12.2523 7.90699 12.6831C7.94668 12.7914 8.04532 12.8689 8.15839 12.8812C8.76584 12.9514 9.05813 12.8209 9.17481 12.5797C9.20489 12.5206 9.15196 12.4517 9.08821 12.4677Z" fill="white" stroke="white" stroke-miterlimit="10"/>
<path d="M10.8493 11.6222V12.4727C10.1805 12.3656 9.76071 12.0874 9.52855 11.6825C9.51532 11.6579 9.53577 11.6283 9.56223 11.632L10.1637 11.728C10.237 11.7391 10.3104 11.7379 10.3826 11.7219L10.8493 11.6222Z" fill="white" stroke="white" stroke-miterlimit="10"/>
<path d="M10.8491 14.1686L10.8239 16.0357C10.8239 16.0492 10.8046 16.0529 10.7998 16.0393C10.6855 15.3772 10.5063 14.8369 10.2729 14.4C10.2333 14.3261 10.2814 14.2363 10.3632 14.2264L10.8491 14.1686Z" fill="white" stroke="white" stroke-miterlimit="10"/>
<path d="M9.87273 14.4259V16.453C9.87273 16.5121 9.79575 16.533 9.76808 16.4813C9.50586 15.7896 9.26167 15.2936 9.04997 15.1828C8.97659 15.0499 9.02471 14.8813 9.15702 14.8111L9.87273 14.4259Z" fill="white" stroke="white" stroke-miterlimit="10"/>
<path d="M8.68392 15.019V17.136C8.68392 17.1741 8.6322 17.184 8.61776 17.1483C8.35193 16.496 8.07166 15.9483 7.76372 15.6024C7.70237 15.5335 7.72523 15.4252 7.80943 15.3895L8.68392 15.019Z" fill="white" stroke="white" stroke-miterlimit="10"/>
<path d="M7.15644 15.4253C7.27312 16.1231 7.47881 16.7471 7.79036 17.2838C7.82765 17.3465 7.75908 17.4204 7.69533 17.3871C7.11073 17.0758 6.66808 16.533 6.3445 15.7958C6.29759 15.6899 6.35894 15.5668 6.47081 15.5471L7.15644 15.4253Z" fill="white" stroke="white" stroke-miterlimit="10"/>
<path d="M8.50748 18.9957C8.33306 18.693 8.48221 18.3803 9.00907 18.208C9.2316 18.1354 9.32182 18.245 9.13898 18.3299C8.91164 18.437 8.8118 18.7213 8.73963 19.024C8.71678 19.1225 8.55679 19.0819 8.50748 18.9957Z" fill="white" stroke="white" stroke-miterlimit="10"/>
<path d="M8.92135 20.0382C8.70965 19.6702 8.89008 19.2936 9.53001 19.0843C9.79945 18.9957 9.90891 19.1286 9.68638 19.2332C9.40972 19.3625 9.28943 19.7071 9.20162 20.0751C9.17516 20.192 8.9815 20.1428 8.92135 20.0382Z" fill="white" stroke="white" stroke-miterlimit="10"/>
<path d="M9.40957 21.2296C9.18945 20.848 9.3771 20.4554 10.0423 20.2376C10.3226 20.1465 10.4356 20.2843 10.2059 20.3914C9.91839 20.5256 9.79329 20.8849 9.70307 21.2665C9.673 21.3883 9.47212 21.3379 9.40957 21.2296Z" fill="white" stroke="white" stroke-miterlimit="10"/>
<path d="M10.3283 21.3305V22.4665C10.3283 22.581 10.4185 22.6733 10.5303 22.6733H10.8491V23.4844C10.1971 23.3896 9.84951 23.0376 9.73765 22.485C9.67029 21.9779 9.82425 21.573 10.1707 21.2579C10.2308 21.2038 10.3283 21.2481 10.3283 21.3305Z" fill="white" stroke="white" stroke-miterlimit="10"/>
<path d="M24.017 21.9695C24.017 22.5098 23.9147 23.0255 23.7114 23.5178C23.5082 24.0102 23.2291 24.4323 22.8742 24.7868C22.5194 25.1412 22.1056 25.4231 21.6341 25.6311C21.1626 25.8391 20.6622 25.9437 20.1341 25.9437H12.3647V2.12708H20.1329C20.661 2.12708 21.1614 2.23169 21.6329 2.43969C22.1044 2.64769 22.5182 2.93323 22.873 3.29754C23.2279 3.66061 23.507 4.08154 23.7102 4.56031C23.9135 5.03908 24.0158 5.55231 24.0158 6.10246L24.017 21.9695ZM16.2488 21.9695H20.1329V6.10123H16.2488V21.9695Z" fill="white"/>
<path d="M27.5234 25.9433V2.12671H31.4075V25.9433H27.5234Z" fill="white"/>
<path d="M46.5912 2.12671L40.7717 14.0479L46.5912 25.9433H42.7071L38.823 17.995V25.9433H34.939V2.12671H38.823V10.075L42.7071 2.12671H46.5912Z" fill="white"/>
<path d="M59.6483 21.9692C59.6483 22.5095 59.5461 23.0252 59.3428 23.5175C59.1395 24.0098 58.8604 24.432 58.5044 24.7864C58.1495 25.1409 57.7358 25.4227 57.2642 25.6307C56.7927 25.8387 56.2923 25.9433 55.7642 25.9433H51.8802C51.3521 25.9433 50.8517 25.8387 50.3802 25.6307C49.9087 25.4227 49.4949 25.1409 49.14 24.7864C48.7852 24.432 48.5061 24.0086 48.3016 23.5175C48.0983 23.0252 47.9961 22.5095 47.9961 21.9692V6.10087C47.9961 5.55195 48.0983 5.03749 48.3016 4.55872C48.5049 4.07995 48.784 3.65903 49.14 3.29595C49.4949 2.93287 49.9087 2.64733 50.3802 2.4381C50.8517 2.2301 51.3521 2.12549 51.8802 2.12549H55.7642C56.2923 2.12549 56.7927 2.2301 57.2642 2.4381C57.7358 2.6461 58.1495 2.93164 58.5044 3.29595C58.8592 3.65903 59.1383 4.07995 59.3428 4.55872C59.5461 5.03749 59.6483 5.55072 59.6483 6.10087V21.9692ZM55.7642 21.8104V5.94087H51.8802V21.8104H55.7642Z" fill="white"/>
</svg>
