<svg width="40" height="16" viewBox="0 0 40 16" fill="none" xmlns="http://www.w3.org/2000/svg">
<g clip-path="url(#clip0_1039_380)">
<path d="M29.1373 16L37.3018 7.99987L29.1373 8.56314e-07L26.6981 2.49773L32.3134 7.99987L26.6981 13.5023L29.1373 16Z" fill="white" fill-opacity="0.6"/>
</g>
<g clip-path="url(#clip1_1039_380)">
<path d="M17.1373 16L25.3018 7.99987L17.1373 8.56314e-07L14.6981 2.49773L20.3134 7.99987L14.6981 13.5023L17.1373 16Z" fill="white" fill-opacity="0.31"/>
</g>
<g clip-path="url(#clip2_1039_380)">
<path d="M5.13735 16L13.3018 7.99987L5.13735 8.56314e-07L2.69813 2.49773L8.31338 7.99987L2.69813 13.5023L5.13735 16Z" fill="white" fill-opacity="0.23"/>
</g>
<defs>
<clipPath id="clip0_1039_380">
<rect width="16" height="16" fill="white" transform="matrix(1.19249e-08 -1 -1 -1.19249e-08 40 16)"/>
</clipPath>
<clipPath id="clip1_1039_380">
<rect width="16" height="16" fill="white" transform="matrix(1.19249e-08 -1 -1 -1.19249e-08 28 16)"/>
</clipPath>
<clipPath id="clip2_1039_380">
<rect width="16" height="16" fill="white" transform="matrix(1.19249e-08 -1 -1 -1.19249e-08 16 16)"/>
</clipPath>
</defs>
</svg>
