<svg width="20" height="20" viewBox="0 0 20 20" fill="none" xmlns="http://www.w3.org/2000/svg">
<g clip-path="url(#clip0_507_4814)">
<path d="M8.05609 2.41727C8.28879 2.41719 8.6873 2.45613 8.98727 2.52684V0H0V8.98711H8.98723V6.46035C8.6873 6.53105 8.28887 6.56984 8.05621 6.56984C6.90965 6.56984 5.98008 5.64039 5.98008 4.49371C5.98008 3.34699 6.90949 2.41734 8.05609 2.41727Z" fill="#F08235"/>
<path d="M6.46039 11.0129C6.53102 11.3129 6.56984 11.7111 6.56984 11.9439C6.56992 13.0905 5.64047 14.02 4.49375 14.02C3.34703 14.02 2.41742 13.0906 2.41734 11.944C2.41727 11.7113 2.45613 11.313 2.52684 11.013H0V20H8.98723V11.0129H6.46039Z" fill="#F08235"/>
<path d="M11.013 0V8.98711H13.5399C13.4692 8.69176 13.4302 8.35527 13.4302 8.12258C13.4302 6.97602 14.3597 6.04648 15.5064 6.04648C16.6531 6.04648 17.5827 6.97594 17.5828 8.1225C17.5828 8.35512 17.5437 8.69168 17.473 8.98707H20V0H11.013Z" fill="#F08235"/>
<path d="M11.013 11.0129V13.5399C11.3082 13.4692 11.6447 13.4302 11.8773 13.4302C13.0239 13.4302 13.9535 14.3597 13.9535 15.5063C13.9535 16.653 13.024 17.5827 11.8775 17.5827C11.6448 17.5828 11.3083 17.5437 11.0129 17.4731V20H20V11.0129H11.013Z" fill="#F08235"/>
</g>
<defs>
<clipPath id="clip0_507_4814">
<rect width="20" height="20" fill="white"/>
</clipPath>
</defs>
</svg>
