<svg width="32" height="22" viewBox="0 0 32 22" fill="none" xmlns="http://www.w3.org/2000/svg">
<path d="M16 0.0904007C11.5179 0.0904007 7.84976 2.26832 5.16296 4.67795C1.36417 8.08486 1.3642 13.9151 5.16304 17.322C7.84984 19.7315 11.518 21.9093 16 21.9093C20.4821 21.9093 24.1502 19.7315 26.837 17.322C30.6359 13.9151 30.6359 8.08486 26.8371 4.67795C24.1503 2.26832 20.4821 0.0904007 16 0.0904007ZM15.9998 17.5091C12.4107 17.5091 9.49069 14.5891 9.49069 11C9.49069 7.41093 12.4107 4.49093 15.9998 4.49093C19.5888 4.49093 22.5088 7.41093 22.5088 11C22.5088 14.5891 19.5888 17.5091 15.9998 17.5091Z" fill="url(#paint0_linear_1028_380)"/>
<path d="M16.0001 14.9979C18.1222 14.9979 19.8425 13.2776 19.8425 11.1555C19.8425 9.03337 18.1222 7.31306 16.0001 7.31306C13.878 7.31306 12.1577 9.03337 12.1577 11.1555C12.1577 13.2776 13.878 14.9979 16.0001 14.9979Z" fill="#306678"/>
<defs>
<linearGradient id="paint0_linear_1028_380" x1="6.74734" y1="21.9094" x2="29.0754" y2="21.9094" gradientUnits="userSpaceOnUse">
<stop stop-color="#306678"/>
<stop offset="0.878125" stop-color="#BF722D"/>
</linearGradient>
</defs>
</svg>
